<svg width="1220" height="601" viewBox="0 0 1220 601" fill="none" xmlns="http://www.w3.org/2000/svg">
<path d="M174.8 536V528.2H183.5V500H174.8V492.2H201.2V500H192.5V528.2H201.2V536H174.8ZM209.577 536V492.2H220.077L231.417 526.1C231.297 524.62 231.157 522.92 230.997 521C230.837 519.04 230.697 517.1 230.577 515.18C230.497 513.22 230.457 511.56 230.457 510.2V492.2H238.377V536H227.877L216.657 502.1C216.777 503.38 216.897 504.9 217.017 506.66C217.137 508.42 217.237 510.2 217.317 512C217.437 513.8 217.497 515.4 217.497 516.8V536H209.577ZM260.193 536.6C257.273 536.6 254.713 536.06 252.513 534.98C250.313 533.86 248.593 532.32 247.353 530.36C246.153 528.36 245.553 526.04 245.553 523.4V504.8C245.553 502.12 246.153 499.8 247.353 497.84C248.593 495.88 250.313 494.36 252.513 493.28C254.713 492.16 257.273 491.6 260.193 491.6C263.153 491.6 265.713 492.16 267.873 493.28C270.073 494.36 271.773 495.88 272.973 497.84C274.213 499.8 274.833 502.12 274.833 504.8H265.833C265.833 503.04 265.333 501.7 264.333 500.78C263.373 499.86 261.993 499.4 260.193 499.4C258.393 499.4 256.993 499.86 255.993 500.78C255.033 501.7 254.553 503.04 254.553 504.8V523.4C254.553 525.12 255.033 526.46 255.993 527.42C256.993 528.34 258.393 528.8 260.193 528.8C261.993 528.8 263.373 528.34 264.333 527.42C265.333 526.46 265.833 525.12 265.833 523.4V519.62H259.353V512H274.833V523.4C274.833 526.04 274.213 528.36 272.973 530.36C271.773 532.32 270.073 533.86 267.873 534.98C265.713 536.06 263.153 536.6 260.193 536.6ZM282.73 536V492.2H309.73V499.88H291.55V509.72H307.63V517.4H291.55V528.32H309.73V536H282.73ZM317.506 536V492.2H328.006L339.346 526.1C339.226 524.62 339.086 522.92 338.926 521C338.766 519.04 338.626 517.1 338.506 515.18C338.426 513.22 338.386 511.56 338.386 510.2V492.2H346.306V536H335.806L324.586 502.1C324.706 503.38 324.826 504.9 324.946 506.66C325.066 508.42 325.166 510.2 325.246 512C325.366 513.8 325.426 515.4 325.426 516.8V536H317.506ZM354.683 536V528.2H363.383V500H354.683V492.2H381.083V500H372.383V528.2H381.083V536H354.683ZM390.659 536V492.2H417.659V499.88H399.479V509.72H415.559V517.4H399.479V528.32H417.659V536H390.659ZM425.736 536V492.2H439.836C442.956 492.2 445.656 492.74 447.936 493.82C450.216 494.9 451.976 496.44 453.216 498.44C454.496 500.44 455.136 502.8 455.136 505.52C455.136 508.36 454.436 510.9 453.036 513.14C451.676 515.38 449.816 517 447.456 518L455.736 536H445.956L438.876 519.44H434.676V536H425.736ZM434.676 511.64H439.836C441.836 511.64 443.376 511.14 444.456 510.14C445.576 509.14 446.136 507.74 446.136 505.94C446.136 504.06 445.576 502.6 444.456 501.56C443.376 500.52 441.836 500 439.836 500H434.676V511.64ZM462.613 536V528.2H471.313V500H462.613V492.2H489.013V500H480.313V528.2H489.013V536H462.613ZM495.289 536L506.029 492.2H517.429L528.289 536H519.109L517.009 526.1H506.569L504.469 536H495.289ZM508.069 518.9H515.449L513.349 508.34C513.069 506.82 512.769 505.32 512.449 503.84C512.169 502.32 511.949 501.14 511.789 500.3C511.629 501.14 511.409 502.3 511.129 503.78C510.889 505.26 510.609 506.76 510.289 508.28L508.069 518.9ZM569.522 536V492.2H583.742C586.782 492.2 589.422 492.78 591.662 493.94C593.942 495.1 595.702 496.74 596.942 498.86C598.222 500.94 598.862 503.4 598.862 506.24V521.9C598.862 524.7 598.222 527.16 596.942 529.28C595.702 531.4 593.942 533.06 591.662 534.26C589.422 535.42 586.782 536 583.742 536H569.522ZM578.522 527.6H583.742C585.582 527.6 587.062 527.08 588.182 526.04C589.302 525 589.862 523.62 589.862 521.9V506.24C589.862 504.56 589.302 503.2 588.182 502.16C587.062 501.12 585.582 500.6 583.742 500.6H578.522V527.6ZM606.519 536V492.2H633.519V499.88H615.339V509.72H631.419V517.4H615.339V528.32H633.519V536H606.519ZM675.172 536L685.912 492.2H697.312L708.172 536H698.992L696.892 526.1H686.452L684.352 536H675.172ZM687.952 518.9H695.332L693.232 508.34C692.952 506.82 692.652 505.32 692.332 503.84C692.052 502.32 691.832 501.14 691.672 500.3C691.512 501.14 691.292 502.3 691.012 503.78C690.772 505.26 690.492 506.76 690.172 508.28L687.952 518.9ZM715.348 536V492.2H724.348V527.6H742.048V536H715.348ZM750.425 536V528.2H759.125V500H750.425V492.2H776.825V500H768.125V528.2H776.825V536H750.425ZM784.122 536V492.2H794.262L798.282 506C798.722 507.44 799.042 508.7 799.242 509.78C799.482 510.86 799.622 511.62 799.662 512.06C799.702 511.62 799.822 510.86 800.022 509.78C800.262 508.7 800.582 507.44 800.982 506L804.942 492.2H815.082V536H806.862V524C806.862 521.8 806.902 519.5 806.982 517.1C807.102 514.66 807.242 512.24 807.402 509.84C807.562 507.44 807.742 505.2 807.942 503.12C808.142 501 808.322 499.16 808.482 497.6L803.442 517.4H795.822L790.542 497.6C790.742 499.08 790.942 500.86 791.142 502.94C791.342 504.98 791.522 507.2 791.682 509.6C791.882 511.96 792.042 514.38 792.162 516.86C792.282 519.34 792.342 521.72 792.342 524V536H784.122ZM822.378 536V492.2H849.378V499.88H831.198V509.72H847.278V517.4H831.198V528.32H849.378V536H822.378ZM857.155 536V492.2H867.655L878.995 526.1C878.875 524.62 878.735 522.92 878.575 521C878.415 519.04 878.275 517.1 878.155 515.18C878.075 513.22 878.035 511.56 878.035 510.2V492.2H885.955V536H875.455L864.235 502.1C864.355 503.38 864.475 504.9 864.595 506.66C864.715 508.42 864.815 510.2 864.895 512C865.015 513.8 865.075 515.4 865.075 516.8V536H857.155ZM903.031 536V500.6H891.931V492.2H923.131V500.6H912.031V536H903.031ZM943.508 536.6C940.588 536.6 938.048 536.06 935.888 534.98C933.728 533.86 932.048 532.32 930.848 530.36C929.688 528.36 929.108 526.04 929.108 523.4V504.8C929.108 502.16 929.688 499.86 930.848 497.9C932.048 495.9 933.728 494.36 935.888 493.28C938.048 492.16 940.588 491.6 943.508 491.6C946.468 491.6 949.008 492.16 951.128 493.28C953.288 494.36 954.948 495.9 956.108 497.9C957.308 499.86 957.908 502.16 957.908 504.8V523.4C957.908 526.04 957.308 528.36 956.108 530.36C954.948 532.32 953.288 533.86 951.128 534.98C949.008 536.06 946.468 536.6 943.508 536.6ZM943.508 528.8C945.308 528.8 946.648 528.34 947.528 527.42C948.448 526.46 948.908 525.12 948.908 523.4V504.8C948.908 503.04 948.468 501.7 947.588 500.78C946.708 499.86 945.348 499.4 943.508 499.4C941.668 499.4 940.308 499.86 939.428 500.78C938.548 501.7 938.108 503.04 938.108 504.8V523.4C938.108 525.12 938.548 526.46 939.428 527.42C940.348 528.34 941.708 528.8 943.508 528.8ZM979.484 536.6C976.404 536.6 973.724 536.08 971.444 535.04C969.164 534 967.404 532.54 966.164 530.66C964.924 528.78 964.304 526.56 964.304 524H973.304C973.304 525.48 973.864 526.66 974.984 527.54C976.144 528.38 977.704 528.8 979.664 528.8C981.544 528.8 983.004 528.38 984.044 527.54C985.124 526.7 985.664 525.54 985.664 524.06C985.664 522.78 985.264 521.68 984.464 520.76C983.664 519.84 982.544 519.22 981.104 518.9L976.664 517.88C972.944 517 970.044 515.38 967.964 513.02C965.924 510.62 964.904 507.7 964.904 504.26C964.904 501.7 965.484 499.48 966.644 497.6C967.844 495.68 969.524 494.2 971.684 493.16C973.844 492.12 976.404 491.6 979.364 491.6C983.844 491.6 987.384 492.72 989.984 494.96C992.624 497.16 993.944 500.14 993.944 503.9H984.944C984.944 502.5 984.444 501.4 983.444 500.6C982.484 499.8 981.084 499.4 979.244 499.4C977.524 499.4 976.204 499.8 975.284 500.6C974.364 501.36 973.904 502.46 973.904 503.9C973.904 505.18 974.264 506.28 974.984 507.2C975.744 508.08 976.804 508.68 978.164 509L982.844 510.08C986.724 510.96 989.664 512.56 991.664 514.88C993.664 517.16 994.664 520.08 994.664 523.64C994.664 526.2 994.024 528.46 992.744 530.42C991.504 532.38 989.744 533.9 987.464 534.98C985.224 536.06 982.564 536.6 979.484 536.6Z" fill="#FF006B"/>
<path d="M127.222 310.177L42.3205 163.032L60.6206 157.489L60.8052 157.434L60.9735 157.327L82.3899 143.757L98.7343 137.832L98.8812 137.778L99.0166 137.693L116.729 126.469L134.574 119.6L134.831 119.501L135.045 119.307L151.034 104.765L168.004 98.4144L168.274 98.3134L168.496 98.1086L183.712 84.0679L197.667 79.6004L198.001 79.4935L198.265 79.2323L210.535 67.0663L229.721 59.3165L230.027 59.1929L230.264 58.9391L240.387 48.1148L255.825 38.3325L256.017 38.2113L256.171 38.0351L264.911 28.0447L281.715 11.2604L340.205 175.188L340.257 175.333L340.335 175.462L428.416 321.15L188.919 472.904L127.326 310.397L127.282 310.282L127.222 310.177Z" fill="#BAE0CE" stroke="#0E8B84" stroke-width="3"/>
<path d="M228.022 232.806L144.787 285.547L175.715 350.902L342.185 245.421L326.721 212.743L311.257 180.065L291.191 192.78" stroke="#BFF700" stroke-width="5"/>
<path d="M282.327 8.59922C284.575 13.3485 236.958 59.7028 166.888 97.3952C99.9862 139.787 42.3016 166.862 40.054 162.113C37.8065 157.364 90.2192 119.148 157.121 76.7566C224.023 34.365 280.08 3.84991 282.327 8.59922Z" fill="#0E8B84"/>
<ellipse cx="124.052" cy="12.3678" rx="124.052" ry="12.3678" transform="matrix(0.844703 -0.535236 0.427759 0.903893 50.8479 144.095)" fill="#D9D9D9"/>
<ellipse cx="18.4758" cy="18.0761" rx="18.4758" ry="18.0761" transform="matrix(0.844703 -0.535236 0.427759 0.903893 67.9064 61.7474)" fill="#DBFF00"/>
<path d="M107.86 101.264C112.13 110.287 104.161 115.903 99.9853 127.492C91.3661 132.953 88.1479 124.932 76.6466 121.042C76.6291 108.757 77.9365 104.575 86.5557 99.1135C95.175 93.652 96.093 100.895 107.86 101.264Z" fill="#55C5E9"/>
<path d="M209.995 21.5223C218.595 19.1802 227.456 26.3837 229.789 37.6118C227.946 49.2342 227.04 59.8408 218.441 62.1829C209.841 64.525 205.303 56.516 198.647 46.0934C196.315 34.8653 213.938 42.4255 209.995 21.5223Z" fill="#8DB600"/>
<path d="M158.129 52.9945C159.223 61.335 159.031 65.3147 148.309 67.1982C137.586 69.0818 142.624 50.5838 141.529 42.2434C140.435 33.9029 162.175 33.8629 172.898 31.9793C183.62 30.0958 157.035 44.6541 158.129 52.9945Z" fill="#FC0C0C"/>
<path d="M282.146 23.0451C283.453 25.64 245.399 76.0449 179.303 120.644C113.207 165.243 49.5593 172.293 48.2516 169.698C46.9439 167.103 106.427 149.547 172.523 104.948C238.62 60.3493 280.838 20.4501 282.146 23.0451Z" fill="#151414"/>
<rect width="42.077" height="9.50114" transform="matrix(0.837991 -0.545684 0.437361 0.899286 161.385 117.082)" fill="#FBF3F3"/>
<rect width="19.5627" height="9.42582" transform="matrix(0.797728 -0.603018 0.491628 0.870805 202.474 88.5992)" fill="#FBF3F3"/>
<rect width="15.489" height="9.30396" transform="matrix(0.731946 -0.681363 0.570841 0.821061 226.313 70.5978)" fill="#FBF3F3"/>
<rect width="20.9646" height="5.7353" transform="matrix(0.913803 -0.406158 0.315053 0.949074 85.1278 157.023)" fill="#FBF3F3"/>
<rect width="19.2063" height="9.57606" transform="matrix(0.87791 -0.478826 0.377251 0.926111 137.66 128.809)" fill="#FBF3F3"/>
<rect width="19.131" height="9.60713" transform="matrix(0.894461 -0.447146 0.349776 0.936833 112.645 142.666)" fill="#FBF3F3"/>
<path d="M179.796 440.103L409.856 294.138" stroke="#0E8B84" stroke-width="3"/>
<path d="M29.4371 138.691C45.1397 151.937 23.3656 148.885 21.94 162.321C20.5144 175.757 39.6861 176.463 24.2745 187.347C11.0878 185.474 1.55361 173.063 2.97923 159.627C4.40485 146.191 16.2504 136.818 29.4371 138.691Z" fill="#E81B1B"/>
<path d="M443.2 245V186.6H452.8L470.64 236.6C470.533 235.267 470.4 233.64 470.24 231.72C470.133 229.747 470.027 227.693 469.92 225.56C469.867 223.373 469.84 221.32 469.84 219.4V186.6H476.8V245H467.2L449.44 195C449.547 196.28 449.653 197.907 449.76 199.88C449.867 201.8 449.947 203.853 450 206.04C450.107 208.173 450.16 210.227 450.16 212.2V245H443.2ZM487.969 245L503.169 186.6H512.849L527.969 245H520.689L516.849 229.48H499.169L495.329 245H487.969ZM500.609 223.4H515.329L510.849 205.4C509.995 201.987 509.329 199.133 508.849 196.84C508.369 194.547 508.075 193.053 507.969 192.36C507.862 193.053 507.569 194.547 507.089 196.84C506.609 199.133 505.942 201.96 505.089 205.32L500.609 223.4ZM539.138 245V186.6H548.738L566.578 236.6C566.471 235.267 566.338 233.64 566.178 231.72C566.071 229.747 565.964 227.693 565.858 225.56C565.804 223.373 565.778 221.32 565.778 219.4V186.6H572.738V245H563.138L545.378 195C545.484 196.28 545.591 197.907 545.698 199.88C545.804 201.8 545.884 203.853 545.938 206.04C546.044 208.173 546.098 210.227 546.098 212.2V245H539.138ZM604.226 245.8C600.706 245.8 597.64 245.133 595.026 243.8C592.466 242.467 590.466 240.547 589.026 238.04C587.64 235.48 586.946 232.467 586.946 229V202.6C586.946 199.08 587.64 196.067 589.026 193.56C590.466 191.053 592.466 189.133 595.026 187.8C597.64 186.467 600.706 185.8 604.226 185.8C607.746 185.8 610.786 186.493 613.346 187.88C615.906 189.213 617.88 191.133 619.266 193.64C620.653 196.147 621.346 199.133 621.346 202.6H614.146C614.146 199.293 613.266 196.76 611.506 195C609.8 193.187 607.373 192.28 604.226 192.28C601.08 192.28 598.6 193.16 596.786 194.92C595.026 196.68 594.146 199.213 594.146 202.52V229C594.146 232.307 595.026 234.867 596.786 236.68C598.6 238.44 601.08 239.32 604.226 239.32C607.373 239.32 609.8 238.44 611.506 236.68C613.266 234.867 614.146 232.307 614.146 229H621.346C621.346 232.413 620.653 235.4 619.266 237.96C617.88 240.467 615.906 242.413 613.346 243.8C610.786 245.133 607.746 245.8 604.226 245.8ZM648.275 245V223.16L630.675 186.6H638.115L649.715 210.6C650.355 211.933 650.862 213.08 651.235 214.04C651.608 214.947 651.848 215.613 651.955 216.04C652.062 215.613 652.302 214.947 652.675 214.04C653.102 213.08 653.635 211.933 654.275 210.6L665.635 186.6H673.075L655.475 223.16V245H648.275ZM744.213 245V223.16L726.613 186.6H734.053L745.653 210.6C746.293 211.933 746.799 213.08 747.173 214.04C747.546 214.947 747.786 215.613 747.893 216.04C747.999 215.613 748.239 214.947 748.613 214.04C749.039 213.08 749.573 211.933 750.213 210.6L761.573 186.6H769.012L751.413 223.16V245H744.213ZM795.781 245.8C793.755 245.8 792.128 245.213 790.901 244.04C789.728 242.867 789.141 241.293 789.141 239.32C789.141 237.24 789.728 235.587 790.901 234.36C792.128 233.133 793.755 232.52 795.781 232.52C797.808 232.52 799.408 233.133 800.581 234.36C801.808 235.587 802.421 237.24 802.421 239.32C802.421 241.293 801.808 242.867 800.581 244.04C799.408 245.213 797.808 245.8 795.781 245.8ZM442.08 351V292.6H451.52L457.6 311.48C458.187 313.187 458.72 314.893 459.2 316.6C459.68 318.253 460.027 319.533 460.24 320.44C460.507 319.533 460.853 318.253 461.28 316.6C461.707 314.893 462.187 313.16 462.72 311.4L468.48 292.6H477.92V351H470.88V329.8C470.88 327.453 470.96 324.787 471.12 321.8C471.28 318.813 471.493 315.773 471.76 312.68C472.027 309.533 472.293 306.547 472.56 303.72C472.88 300.84 473.147 298.333 473.36 296.2L463.92 325.4H456.32L446.8 296.2C447.067 298.28 447.333 300.707 447.6 303.48C447.867 306.2 448.107 309.107 448.32 312.2C448.533 315.24 448.72 318.28 448.88 321.32C449.04 324.36 449.12 327.187 449.12 329.8V351H442.08ZM507.969 351.8C504.449 351.8 501.409 351.133 498.849 349.8C496.342 348.467 494.395 346.547 493.009 344.04C491.675 341.48 491.009 338.467 491.009 335V308.6C491.009 305.08 491.675 302.067 493.009 299.56C494.395 297.053 496.342 295.133 498.849 293.8C501.409 292.467 504.449 291.8 507.969 291.8C511.489 291.8 514.502 292.467 517.009 293.8C519.569 295.133 521.515 297.053 522.849 299.56C524.235 302.067 524.929 305.053 524.929 308.52V335C524.929 338.467 524.235 341.48 522.849 344.04C521.515 346.547 519.569 348.467 517.009 349.8C514.502 351.133 511.489 351.8 507.969 351.8ZM507.969 345.32C511.115 345.32 513.515 344.44 515.169 342.68C516.875 340.867 517.729 338.307 517.729 335V308.6C517.729 305.293 516.875 302.76 515.169 301C513.515 299.187 511.115 298.28 507.969 298.28C504.875 298.28 502.475 299.187 500.769 301C499.062 302.76 498.209 305.293 498.209 308.6V335C498.209 338.307 499.062 340.867 500.769 342.68C502.475 344.44 504.875 345.32 507.969 345.32ZM539.138 351V292.6H548.738L566.578 342.6C566.471 341.267 566.338 339.64 566.178 337.72C566.071 335.747 565.964 333.693 565.858 331.56C565.804 329.373 565.778 327.32 565.778 325.4V292.6H572.738V351H563.138L545.378 301C545.484 302.28 545.591 303.907 545.698 305.88C545.804 307.8 545.884 309.853 545.938 312.04C546.044 314.173 546.098 316.227 546.098 318.2V351H539.138ZM604.226 351.8C600.386 351.8 597.08 351.16 594.306 349.88C591.586 348.6 589.48 346.76 587.986 344.36C586.493 341.96 585.72 339.107 585.666 335.8H592.866C592.866 338.733 593.853 341.053 595.826 342.76C597.853 344.467 600.653 345.32 604.226 345.32C607.586 345.32 610.2 344.493 612.066 342.84C613.986 341.187 614.946 338.893 614.946 335.96C614.946 333.613 614.306 331.56 613.026 329.8C611.8 328.04 610.013 326.813 607.666 326.12L599.746 323.64C595.746 322.413 592.653 320.36 590.466 317.48C588.333 314.6 587.266 311.213 587.266 307.32C587.266 304.173 587.96 301.453 589.346 299.16C590.786 296.813 592.786 295 595.346 293.72C597.906 292.387 600.92 291.72 604.386 291.72C609.506 291.72 613.613 293.16 616.706 296.04C619.8 298.867 621.373 302.653 621.426 307.4H614.226C614.226 304.52 613.346 302.28 611.586 300.68C609.88 299.027 607.453 298.2 604.306 298.2C601.213 298.2 598.786 298.947 597.026 300.44C595.32 301.933 594.466 304.013 594.466 306.68C594.466 309.08 595.106 311.16 596.386 312.92C597.666 314.68 599.506 315.933 601.906 316.68L609.906 319.24C613.8 320.467 616.813 322.547 618.946 325.48C621.08 328.413 622.146 331.853 622.146 335.8C622.146 339 621.4 341.8 619.906 344.2C618.413 346.6 616.306 348.467 613.586 349.8C610.92 351.133 607.8 351.8 604.226 351.8ZM631.875 351L647.075 292.6H656.755L671.875 351H664.595L660.755 335.48H643.075L639.235 351H631.875ZM644.515 329.4H659.235L654.755 311.4C653.902 307.987 653.235 305.133 652.755 302.84C652.275 300.547 651.982 299.053 651.875 298.36C651.768 299.053 651.475 300.547 650.995 302.84C650.515 305.133 649.848 307.96 648.995 311.32L644.515 329.4ZM685.044 351V292.6H692.244V344.44H718.644V351H685.044ZM742.853 351L727.813 292.6H735.253L745.173 332.28C745.866 335.053 746.453 337.64 746.933 340.04C747.413 342.387 747.759 344.173 747.973 345.4C748.186 344.173 748.506 342.387 748.933 340.04C749.413 337.64 749.999 335.053 750.693 332.28L760.533 292.6H767.813L752.693 351H742.853ZM779.781 351V292.6H813.381V299.16H786.901V317.24H810.581V323.72H786.901V344.44H813.381V351H779.781ZM875.719 351V292.6H909.319V299.16H882.839V317.24H906.519V323.72H882.839V344.44H909.319V351H875.719ZM939.688 351.8C937.661 351.8 936.034 351.213 934.808 350.04C933.634 348.867 933.048 347.293 933.048 345.32C933.048 343.24 933.634 341.587 934.808 340.36C936.034 339.133 937.661 338.52 939.688 338.52C941.714 338.52 943.314 339.133 944.488 340.36C945.714 341.587 946.328 343.24 946.328 345.32C946.328 347.293 945.714 348.867 944.488 350.04C943.314 351.213 941.714 351.8 939.688 351.8Z" fill="#121111"/>
<path d="M443.2 245H442.2V246H443.2V245ZM443.2 186.6V185.6H442.2V186.6H443.2ZM452.8 186.6L453.742 186.264L453.505 185.6H452.8V186.6ZM470.64 236.6L469.698 236.936L471.637 236.52L470.64 236.6ZM470.24 231.72L469.241 231.774L469.242 231.789L469.243 231.803L470.24 231.72ZM469.92 225.56L468.92 225.584L468.921 225.597L468.921 225.61L469.92 225.56ZM469.84 186.6V185.6H468.84V186.6H469.84ZM476.8 186.6H477.8V185.6H476.8V186.6ZM476.8 245V246H477.8V245H476.8ZM467.2 245L466.258 245.335L466.494 246H467.2V245ZM449.44 195L450.382 194.665L448.443 195.083L449.44 195ZM449.76 199.88L448.761 199.934L448.762 199.935L449.76 199.88ZM450 206.04L449 206.064L449.001 206.077L449.001 206.09L450 206.04ZM450.16 245V246H451.16V245H450.16ZM444.2 245V186.6H442.2V245H444.2ZM443.2 187.6H452.8V185.6H443.2V187.6ZM451.858 186.936L469.698 236.936L471.582 236.264L453.742 186.264L451.858 186.936ZM471.637 236.52C471.53 235.185 471.397 233.558 471.237 231.637L469.243 231.803C469.403 233.722 469.537 235.348 469.643 236.68L471.637 236.52ZM471.239 231.666C471.132 229.694 471.025 227.642 470.919 225.51L468.921 225.61C469.028 227.745 469.135 229.799 469.241 231.774L471.239 231.666ZM470.92 225.536C470.867 223.356 470.84 221.311 470.84 219.4H468.84C468.84 221.329 468.867 223.391 468.92 225.584L470.92 225.536ZM470.84 219.4V186.6H468.84V219.4H470.84ZM469.84 187.6H476.8V185.6H469.84V187.6ZM475.8 186.6V245H477.8V186.6H475.8ZM476.8 244H467.2V246H476.8V244ZM468.142 244.665L450.382 194.665L448.498 195.335L466.258 245.335L468.142 244.665ZM448.443 195.083C448.549 196.35 448.655 197.966 448.761 199.934L450.759 199.826C450.652 197.848 450.544 196.21 450.437 194.917L448.443 195.083ZM448.762 199.935C448.868 201.844 448.947 203.887 449 206.064L451 206.016C450.946 203.82 450.866 201.756 450.758 199.825L448.762 199.935ZM449.001 206.09C449.107 208.208 449.16 210.245 449.16 212.2H451.16C451.16 210.209 451.106 208.139 450.999 205.99L449.001 206.09ZM449.16 212.2V245H451.16V212.2H449.16ZM450.16 244H443.2V246H450.16V244ZM487.969 245L487.001 244.748L486.675 246H487.969V245ZM503.169 186.6V185.6H502.396L502.201 186.348L503.169 186.6ZM512.849 186.6L513.817 186.349L513.623 185.6H512.849V186.6ZM527.969 245V246H529.261L528.937 244.749L527.969 245ZM520.689 245L519.718 245.24L519.906 246H520.689V245ZM516.849 229.48L517.819 229.24L517.631 228.48H516.849V229.48ZM499.169 229.48V228.48H498.386L498.198 229.24L499.169 229.48ZM495.329 245V246H496.111L496.299 245.24L495.329 245ZM500.609 223.4L499.638 223.159L499.331 224.4H500.609V223.4ZM515.329 223.4V224.4H516.608L516.299 223.158L515.329 223.4ZM510.849 205.4L511.819 205.158L511.819 205.157L510.849 205.4ZM508.849 196.84L509.828 196.635L509.828 196.635L508.849 196.84ZM507.969 192.36L508.957 192.208H506.98L507.969 192.36ZM507.089 196.84L506.11 196.635L506.11 196.635L507.089 196.84ZM505.089 205.32L504.12 205.074L504.118 205.079L505.089 205.32ZM488.937 245.252L504.137 186.852L502.201 186.348L487.001 244.748L488.937 245.252ZM503.169 187.6H512.849V185.6H503.169V187.6ZM511.881 186.851L527.001 245.251L528.937 244.749L513.817 186.349L511.881 186.851ZM527.969 244H520.689V246H527.969V244ZM521.659 244.76L517.819 229.24L515.878 229.72L519.718 245.24L521.659 244.76ZM516.849 228.48H499.169V230.48H516.849V228.48ZM498.198 229.24L494.358 244.76L496.299 245.24L500.139 229.72L498.198 229.24ZM495.329 244H487.969V246H495.329V244ZM500.609 224.4H515.329V222.4H500.609V224.4ZM516.299 223.158L511.819 205.158L509.878 205.642L514.358 223.642L516.299 223.158ZM511.819 205.157C510.967 201.751 510.304 198.911 509.828 196.635L507.87 197.045C508.354 199.355 509.024 202.222 509.879 205.643L511.819 205.157ZM509.828 196.635C509.346 194.335 509.059 192.87 508.957 192.208L506.98 192.512C507.092 193.237 507.391 194.758 507.87 197.045L509.828 196.635ZM506.98 192.208C506.879 192.87 506.591 194.335 506.11 196.635L508.068 197.045C508.546 194.758 508.846 193.237 508.957 192.512L506.98 192.208ZM506.11 196.635C505.634 198.91 504.971 201.722 504.12 205.074L506.058 205.566C506.913 202.198 507.584 199.357 508.068 197.045L506.11 196.635ZM504.118 205.079L499.638 223.159L501.579 223.641L506.059 205.561L504.118 205.079ZM539.138 245H538.138V246H539.138V245ZM539.138 186.6V185.6H538.138V186.6H539.138ZM548.738 186.6L549.679 186.264L549.442 185.6H548.738V186.6ZM566.578 236.6L565.636 236.936L567.574 236.52L566.578 236.6ZM566.178 231.72L565.179 231.774L565.18 231.789L565.181 231.803L566.178 231.72ZM565.858 225.56L564.858 225.584L564.858 225.597L564.859 225.61L565.858 225.56ZM565.778 186.6V185.6H564.778V186.6H565.778ZM572.738 186.6H573.738V185.6H572.738V186.6ZM572.738 245V246H573.738V245H572.738ZM563.138 245L562.195 245.335L562.431 246H563.138V245ZM545.378 195L546.32 194.665L544.381 195.083L545.378 195ZM545.698 199.88L544.699 199.934L544.699 199.935L545.698 199.88ZM545.938 206.04L544.938 206.064L544.938 206.077L544.939 206.09L545.938 206.04ZM546.098 245V246H547.098V245H546.098ZM540.138 245V186.6H538.138V245H540.138ZM539.138 187.6H548.738V185.6H539.138V187.6ZM547.796 186.936L565.636 236.936L567.519 236.264L549.679 186.264L547.796 186.936ZM567.574 236.52C567.468 235.185 567.334 233.558 567.174 231.637L565.181 231.803C565.341 233.722 565.474 235.348 565.581 236.68L567.574 236.52ZM567.176 231.666C567.069 229.694 566.963 227.642 566.856 225.51L564.859 225.61C564.965 227.745 565.072 229.799 565.179 231.774L567.176 231.666ZM566.857 225.536C566.804 223.356 566.778 221.311 566.778 219.4H564.778C564.778 221.329 564.804 223.391 564.858 225.584L566.857 225.536ZM566.778 219.4V186.6H564.778V219.4H566.778ZM565.778 187.6H572.738V185.6H565.778V187.6ZM571.738 186.6V245H573.738V186.6H571.738ZM572.738 244H563.138V246H572.738V244ZM564.08 244.665L546.32 194.665L544.435 195.335L562.195 245.335L564.08 244.665ZM544.381 195.083C544.487 196.35 544.593 197.966 544.699 199.934L546.696 199.826C546.589 197.848 546.482 196.21 546.374 194.917L544.381 195.083ZM544.699 199.935C544.805 201.844 544.885 203.887 544.938 206.064L546.937 206.016C546.884 203.82 546.803 201.756 546.696 199.825L544.699 199.935ZM544.939 206.09C545.045 208.208 545.098 210.245 545.098 212.2H547.098C547.098 210.209 547.044 208.139 546.936 205.99L544.939 206.09ZM545.098 212.2V245H547.098V212.2H545.098ZM546.098 244H539.138V246H546.098V244ZM595.026 243.8L594.564 244.687L594.572 244.691L595.026 243.8ZM589.026 238.04L588.147 238.516L588.153 238.527L588.159 238.538L589.026 238.04ZM589.026 193.56L588.159 193.062L588.155 193.069L588.151 193.076L589.026 193.56ZM595.026 187.8L594.572 186.909L594.564 186.913L595.026 187.8ZM613.346 187.88L612.87 188.759L612.877 188.763L612.884 188.767L613.346 187.88ZM621.346 202.6V203.6H622.346V202.6H621.346ZM614.146 202.6H613.146V203.6H614.146V202.6ZM611.506 195L610.778 195.685L610.788 195.696L610.799 195.707L611.506 195ZM596.786 194.92L596.09 194.202L596.084 194.208L596.079 194.213L596.786 194.92ZM596.786 236.68L596.069 237.376L596.079 237.387L596.09 237.398L596.786 236.68ZM611.506 236.68L610.789 235.984L610.788 235.984L611.506 236.68ZM614.146 229V228H613.146V229H614.146ZM621.346 229H622.346V228H621.346V229ZM619.266 237.96L620.141 238.444L620.146 238.436L619.266 237.96ZM613.346 243.8L613.808 244.687L613.815 244.683L613.823 244.679L613.346 243.8ZM604.226 244.8C600.833 244.8 597.928 244.158 595.481 242.909L594.572 244.691C597.351 246.109 600.58 246.8 604.226 246.8V244.8ZM595.488 242.913C593.098 241.668 591.238 239.883 589.893 237.542L588.159 238.538C589.694 241.21 591.835 243.265 594.564 244.687L595.488 242.913ZM589.906 237.564C588.612 235.175 587.946 232.332 587.946 229H585.946C585.946 232.601 586.667 235.785 588.147 238.516L589.906 237.564ZM587.946 229V202.6H585.946V229H587.946ZM587.946 202.6C587.946 199.211 588.613 196.372 589.901 194.044L588.151 193.076C586.666 195.761 585.946 198.949 585.946 202.6H587.946ZM589.893 194.058C591.238 191.717 593.098 189.932 595.488 188.687L594.564 186.913C591.835 188.335 589.694 190.39 588.159 193.062L589.893 194.058ZM595.481 188.691C597.928 187.442 600.833 186.8 604.226 186.8V184.8C600.58 184.8 597.351 185.491 594.572 186.909L595.481 188.691ZM604.226 186.8C607.614 186.8 610.484 187.467 612.87 188.759L613.823 187.001C611.089 185.52 607.878 184.8 604.226 184.8V186.8ZM612.884 188.767C615.271 190.01 617.1 191.791 618.391 194.124L620.141 193.156C618.659 190.476 616.541 188.416 613.808 186.993L612.884 188.767ZM618.391 194.124C619.68 196.454 620.346 199.267 620.346 202.6H622.346C622.346 198.999 621.625 195.839 620.141 193.156L618.391 194.124ZM621.346 201.6H614.146V203.6H621.346V201.6ZM615.146 202.6C615.146 199.118 614.216 196.296 612.213 194.293L610.799 195.707C612.316 197.224 613.146 199.468 613.146 202.6H615.146ZM612.234 194.315C610.292 192.25 607.571 191.28 604.226 191.28V193.28C607.174 193.28 609.307 194.123 610.778 195.685L612.234 194.315ZM604.226 191.28C600.887 191.28 598.133 192.219 596.09 194.202L597.483 195.638C599.066 194.101 601.273 193.28 604.226 193.28V191.28ZM596.079 194.213C594.076 196.216 593.146 199.038 593.146 202.52H595.146C595.146 199.388 595.976 197.144 597.493 195.627L596.079 194.213ZM593.146 202.52V229H595.146V202.52H593.146ZM593.146 229C593.146 232.484 594.077 235.324 596.069 237.376L597.504 235.984C595.976 234.409 595.146 232.13 595.146 229H593.146ZM596.09 237.398C598.133 239.381 600.887 240.32 604.226 240.32V238.32C601.273 238.32 599.066 237.499 597.483 235.962L596.09 237.398ZM604.226 240.32C607.563 240.32 610.28 239.382 612.224 237.376L610.788 235.984C609.32 237.498 607.183 238.32 604.226 238.32V240.32ZM612.224 237.376C614.216 235.324 615.146 232.484 615.146 229H613.146C613.146 232.13 612.317 234.409 610.789 235.984L612.224 237.376ZM614.146 230H621.346V228H614.146V230ZM620.346 229C620.346 232.276 619.682 235.093 618.387 237.484L620.146 238.436C621.624 235.707 622.346 232.551 622.346 229H620.346ZM618.391 237.476C617.099 239.813 615.265 241.623 612.87 242.921L613.823 244.679C616.548 243.203 618.661 241.121 620.141 238.444L618.391 237.476ZM612.884 242.913C610.495 244.158 607.62 244.8 604.226 244.8V246.8C607.872 246.8 611.078 246.109 613.808 244.687L612.884 242.913ZM648.275 245H647.275V246H648.275V245ZM648.275 223.16H649.275V222.932L649.176 222.726L648.275 223.16ZM630.675 186.6V185.6H629.084L629.774 187.034L630.675 186.6ZM638.115 186.6L639.015 186.165L638.742 185.6H638.115V186.6ZM649.715 210.6L650.617 210.167L650.615 210.165L649.715 210.6ZM651.235 214.04L650.303 214.402L650.307 214.412L650.31 214.421L651.235 214.04ZM651.955 216.04L650.985 216.283L652.925 216.283L651.955 216.04ZM652.675 214.04L651.761 213.634L651.756 213.646L651.75 213.659L652.675 214.04ZM654.275 210.6L655.177 211.033L655.179 211.028L654.275 210.6ZM665.635 186.6V185.6H665.002L664.731 186.172L665.635 186.6ZM673.075 186.6L673.976 187.034L674.666 185.6H673.075V186.6ZM655.475 223.16L654.574 222.726L654.475 222.932V223.16H655.475ZM655.475 245V246H656.475V245H655.475ZM649.275 245V223.16H647.275V245H649.275ZM649.176 222.726L631.576 186.166L629.774 187.034L647.374 223.594L649.176 222.726ZM630.675 187.6H638.115V185.6H630.675V187.6ZM637.215 187.035L648.815 211.035L650.615 210.165L639.015 186.165L637.215 187.035ZM648.813 211.033C649.447 212.352 649.942 213.474 650.303 214.402L652.167 213.678C651.781 212.686 651.263 211.515 650.617 210.167L648.813 211.033ZM650.31 214.421C650.682 215.323 650.897 215.932 650.985 216.283L652.925 215.797C652.799 215.295 652.535 214.57 652.16 213.659L650.31 214.421ZM652.925 216.283C653.013 215.932 653.228 215.323 653.6 214.421L651.75 213.659C651.375 214.57 651.111 215.295 650.985 215.797L652.925 216.283ZM653.589 214.446C654.01 213.498 654.539 212.36 655.177 211.033L653.373 210.167C652.731 211.506 652.193 212.662 651.761 213.634L653.589 214.446ZM655.179 211.028L666.539 187.028L664.731 186.172L653.371 210.172L655.179 211.028ZM665.635 187.6H673.075V185.6H665.635V187.6ZM672.174 186.166L654.574 222.726L656.376 223.594L673.976 187.034L672.174 186.166ZM654.475 223.16V245H656.475V223.16H654.475ZM655.475 244H648.275V246H655.475V244ZM744.213 245H743.213V246H744.213V245ZM744.213 223.16H745.213V222.932L745.114 222.726L744.213 223.16ZM726.613 186.6V185.6H725.021L725.711 187.034L726.613 186.6ZM734.053 186.6L734.953 186.165L734.68 185.6H734.053V186.6ZM745.653 210.6L746.554 210.167L746.553 210.165L745.653 210.6ZM747.173 214.04L746.24 214.402L746.244 214.412L746.248 214.421L747.173 214.04ZM747.893 216.04L746.922 216.283L748.863 216.283L747.893 216.04ZM748.613 214.04L747.699 213.634L747.693 213.646L747.688 213.659L748.613 214.04ZM750.213 210.6L751.114 211.033L751.116 211.028L750.213 210.6ZM761.573 186.6V185.6H760.939L760.669 186.172L761.573 186.6ZM769.012 186.6L769.914 187.034L770.604 185.6H769.012V186.6ZM751.413 223.16L750.511 222.726L750.413 222.932V223.16H751.413ZM751.413 245V246H752.413V245H751.413ZM745.213 245V223.16H743.213V245H745.213ZM745.114 222.726L727.514 186.166L725.711 187.034L743.311 223.594L745.114 222.726ZM726.613 187.6H734.053V185.6H726.613V187.6ZM733.152 187.035L744.752 211.035L746.553 210.165L734.953 186.165L733.152 187.035ZM744.751 211.033C745.384 212.352 745.879 213.474 746.24 214.402L748.105 213.678C747.719 212.686 747.201 211.515 746.554 210.167L744.751 211.033ZM746.248 214.421C746.619 215.323 746.835 215.932 746.922 216.283L748.863 215.797C748.737 215.295 748.472 214.57 748.097 213.659L746.248 214.421ZM748.863 216.283C748.95 215.932 749.166 215.323 749.537 214.421L747.688 213.659C747.313 214.57 747.048 215.295 746.922 215.797L748.863 216.283ZM749.526 214.446C749.948 213.498 750.477 212.36 751.114 211.033L749.311 210.167C748.668 211.506 748.131 212.662 747.699 213.634L749.526 214.446ZM751.116 211.028L762.476 187.028L760.669 186.172L749.309 210.172L751.116 211.028ZM761.573 187.6H769.012V185.6H761.573V187.6ZM768.111 186.166L750.511 222.726L752.314 223.594L769.914 187.034L768.111 186.166ZM750.413 223.16V245H752.413V223.16H750.413ZM751.413 244H744.213V246H751.413V244ZM790.901 244.04L790.194 244.747L790.202 244.755L790.21 244.763L790.901 244.04ZM790.901 234.36L790.194 233.653L790.186 233.661L790.179 233.669L790.901 234.36ZM800.581 234.36L799.859 235.051L799.866 235.059L799.874 235.067L800.581 234.36ZM800.581 244.04L799.89 243.317L799.882 243.325L799.874 243.333L800.581 244.04ZM795.781 244.8C793.959 244.8 792.598 244.279 791.592 243.317L790.21 244.763C791.658 246.148 793.55 246.8 795.781 246.8V244.8ZM791.608 243.333C790.657 242.382 790.141 241.082 790.141 239.32H788.141C788.141 241.505 788.798 243.351 790.194 244.747L791.608 243.333ZM790.141 239.32C790.141 237.436 790.667 236.052 791.624 235.051L790.179 233.669C788.789 235.122 788.141 237.044 788.141 239.32H790.141ZM791.608 235.067C792.616 234.059 793.972 233.52 795.781 233.52V231.52C793.538 231.52 791.64 232.207 790.194 233.653L791.608 235.067ZM795.781 233.52C797.592 233.52 798.91 234.06 799.859 235.051L801.304 233.669C799.906 232.207 798.024 231.52 795.781 231.52V233.52ZM799.874 235.067C800.877 236.07 801.421 237.449 801.421 239.32H803.421C803.421 237.031 802.739 235.104 801.288 233.653L799.874 235.067ZM801.421 239.32C801.421 241.069 800.887 242.364 799.89 243.317L801.272 244.763C802.729 243.37 803.421 241.518 803.421 239.32H801.421ZM799.874 243.333C798.928 244.279 797.605 244.8 795.781 244.8V246.8C798.011 246.8 799.887 246.148 801.288 244.747L799.874 243.333ZM442.08 351H441.08V352H442.08V351ZM442.08 292.6V291.6H441.08V292.6H442.08ZM451.52 292.6L452.472 292.293L452.249 291.6H451.52V292.6ZM457.6 311.48L456.648 311.787L456.651 311.796L456.654 311.805L457.6 311.48ZM459.2 316.6L458.237 316.871L458.24 316.879L459.2 316.6ZM460.24 320.44L459.267 320.669L460.133 324.349L461.199 320.722L460.24 320.44ZM461.28 316.6L462.248 316.85L462.25 316.843L461.28 316.6ZM462.72 311.4L461.764 311.107L461.763 311.11L462.72 311.4ZM468.48 292.6V291.6H467.741L467.524 292.307L468.48 292.6ZM477.92 292.6H478.92V291.6H477.92V292.6ZM477.92 351V352H478.92V351H477.92ZM470.88 351H469.88V352H470.88V351ZM471.12 321.8L470.121 321.747L470.121 321.747L471.12 321.8ZM471.76 312.68L472.756 312.766L472.756 312.764L471.76 312.68ZM472.56 303.72L471.566 303.61L471.565 303.618L471.564 303.626L472.56 303.72ZM473.36 296.2L474.355 296.299L472.408 295.892L473.36 296.2ZM463.92 325.4V326.4H464.648L464.872 325.708L463.92 325.4ZM456.32 325.4L455.369 325.71L455.594 326.4H456.32V325.4ZM446.8 296.2L447.751 295.89L445.808 296.327L446.8 296.2ZM447.6 303.48L446.605 303.576L446.605 303.578L447.6 303.48ZM448.32 312.2L447.322 312.269L447.322 312.27L448.32 312.2ZM448.88 321.32L449.879 321.267L449.879 321.267L448.88 321.32ZM449.12 351V352H450.12V351H449.12ZM443.08 351V292.6H441.08V351H443.08ZM442.08 293.6H451.52V291.6H442.08V293.6ZM450.568 292.907L456.648 311.787L458.552 311.173L452.472 292.293L450.568 292.907ZM456.654 311.805C457.235 313.494 457.763 315.183 458.237 316.871L460.163 316.329C459.677 314.604 459.138 312.879 458.546 311.155L456.654 311.805ZM458.24 316.879C458.718 318.527 459.059 319.788 459.267 320.669L461.213 320.211C460.994 319.279 460.642 317.98 460.16 316.321L458.24 316.879ZM461.199 320.722C461.471 319.8 461.821 318.507 462.248 316.85L460.312 316.35C459.886 318 459.543 319.267 459.281 320.158L461.199 320.722ZM462.25 316.843C462.673 315.152 463.148 313.435 463.677 311.69L461.763 311.11C461.225 312.885 460.741 314.634 460.31 316.357L462.25 316.843ZM463.676 311.693L469.436 292.893L467.524 292.307L461.764 311.107L463.676 311.693ZM468.48 293.6H477.92V291.6H468.48V293.6ZM476.92 292.6V351H478.92V292.6H476.92ZM477.92 350H470.88V352H477.92V350ZM471.88 351V329.8H469.88V351H471.88ZM471.88 329.8C471.88 327.475 471.959 324.827 472.119 321.853L470.121 321.747C469.961 324.746 469.88 327.431 469.88 329.8H471.88ZM472.119 321.853C472.278 318.878 472.491 315.849 472.756 312.766L470.764 312.594C470.496 315.698 470.282 318.749 470.121 321.747L472.119 321.853ZM472.756 312.764C473.023 309.621 473.289 306.637 473.556 303.814L471.564 303.626C471.297 306.456 471.03 309.446 470.764 312.596L472.756 312.764ZM473.554 303.83C473.874 300.948 474.141 298.437 474.355 296.299L472.365 296.1C472.152 298.229 471.886 300.732 471.566 303.61L473.554 303.83ZM472.408 295.892L462.968 325.092L464.872 325.708L474.312 296.508L472.408 295.892ZM463.92 324.4H456.32V326.4H463.92V324.4ZM457.271 325.09L447.751 295.89L445.849 296.51L455.369 325.71L457.271 325.09ZM445.808 296.327C446.073 298.394 446.339 300.81 446.605 303.576L448.595 303.384C448.328 300.604 448.06 298.166 447.792 296.073L445.808 296.327ZM446.605 303.578C446.87 306.287 447.11 309.184 447.322 312.269L449.318 312.131C449.104 309.03 448.863 306.113 448.595 303.382L446.605 303.578ZM447.322 312.27C447.535 315.304 447.722 318.338 447.881 321.373L449.879 321.267C449.718 318.222 449.531 315.176 449.318 312.13L447.322 312.27ZM447.881 321.373C448.041 324.398 448.12 327.207 448.12 329.8H450.12C450.12 327.167 450.039 324.322 449.879 321.267L447.881 321.373ZM448.12 329.8V351H450.12V329.8H448.12ZM449.12 350H442.08V352H449.12V350ZM498.849 349.8L498.379 350.683L498.387 350.687L498.849 349.8ZM493.009 344.04L492.122 344.502L492.128 344.513L492.134 344.524L493.009 344.04ZM493.009 299.56L492.134 299.076L492.13 299.083L492.126 299.09L493.009 299.56ZM498.849 293.8L498.387 292.913L498.379 292.917L498.849 293.8ZM517.009 293.8L516.539 294.683L516.547 294.687L517.009 293.8ZM522.849 299.56L521.966 300.03L521.97 300.037L521.974 300.044L522.849 299.56ZM522.849 344.04L521.969 343.564L521.966 343.57L522.849 344.04ZM517.009 349.8L516.547 348.913L516.539 348.917L517.009 349.8ZM515.169 342.68L514.441 341.995L514.44 341.995L515.169 342.68ZM515.169 301L514.43 301.674L514.44 301.685L514.451 301.696L515.169 301ZM500.769 301L501.487 301.696L501.492 301.691L501.497 301.685L500.769 301ZM500.769 342.68L500.041 343.365L500.046 343.371L500.051 343.376L500.769 342.68ZM507.969 350.8C504.575 350.8 501.7 350.158 499.311 348.913L498.387 350.687C501.117 352.109 504.323 352.8 507.969 352.8V350.8ZM499.318 348.917C496.984 347.676 495.178 345.895 493.884 343.556L492.134 344.524C493.613 347.198 495.7 349.258 498.379 350.683L499.318 348.917ZM493.896 343.578C492.65 341.187 492.009 338.338 492.009 335H490.009C490.009 338.595 490.701 341.773 492.122 344.502L493.896 343.578ZM492.009 335V308.6H490.009V335H492.009ZM492.009 308.6C492.009 305.205 492.651 302.361 493.892 300.03L492.126 299.09C490.699 301.772 490.009 304.955 490.009 308.6H492.009ZM493.884 300.044C495.178 297.705 496.984 295.924 499.318 294.683L498.379 292.917C495.7 294.342 493.613 296.402 492.134 299.076L493.884 300.044ZM499.311 294.687C501.7 293.442 504.575 292.8 507.969 292.8V290.8C504.323 290.8 501.117 291.491 498.387 292.913L499.311 294.687ZM507.969 292.8C511.364 292.8 514.208 293.443 516.539 294.683L517.478 292.917C514.796 291.491 511.614 290.8 507.969 290.8V292.8ZM516.547 294.687C518.931 295.929 520.729 297.705 521.966 300.03L523.732 299.09C522.302 296.402 520.207 294.338 517.471 292.913L516.547 294.687ZM521.974 300.044C523.263 302.374 523.929 305.187 523.929 308.52H525.929C525.929 304.919 525.208 301.759 523.724 299.076L521.974 300.044ZM523.929 308.52V335H525.929V308.52H523.929ZM523.929 335C523.929 338.332 523.263 341.175 521.969 343.564L523.728 344.516C525.208 341.785 525.929 338.601 525.929 335H523.929ZM521.966 343.57C520.729 345.895 518.931 347.671 516.547 348.913L517.471 350.687C520.207 349.262 522.302 347.198 523.732 344.51L521.966 343.57ZM516.539 348.917C514.208 350.157 511.364 350.8 507.969 350.8V352.8C511.614 352.8 514.796 352.109 517.478 350.683L516.539 348.917ZM507.969 346.32C511.303 346.32 514.002 345.382 515.898 343.365L514.44 341.995C513.028 343.498 510.927 344.32 507.969 344.32V346.32ZM515.897 343.365C517.829 341.312 518.729 338.476 518.729 335H516.729C516.729 338.138 515.922 340.421 514.441 341.995L515.897 343.365ZM518.729 335V308.6H516.729V335H518.729ZM518.729 308.6C518.729 305.126 517.83 302.308 515.887 300.304L514.451 301.696C515.921 303.212 516.729 305.46 516.729 308.6H518.729ZM515.908 300.326C514.015 298.25 511.312 297.28 507.969 297.28V299.28C510.919 299.28 513.016 300.123 514.43 301.674L515.908 300.326ZM507.969 297.28C504.671 297.28 501.98 298.254 500.041 300.315L501.497 301.685C502.971 300.119 505.08 299.28 507.969 299.28V297.28ZM500.051 300.304C498.108 302.308 497.209 305.126 497.209 308.6H499.209C499.209 305.46 500.017 303.212 501.487 301.696L500.051 300.304ZM497.209 308.6V335H499.209V308.6H497.209ZM497.209 335C497.209 338.476 498.108 341.312 500.041 343.365L501.497 341.995C500.016 340.421 499.209 338.138 499.209 335H497.209ZM500.051 343.376C501.992 345.378 504.68 346.32 507.969 346.32V344.32C505.071 344.32 502.959 343.502 501.487 341.984L500.051 343.376ZM539.138 351H538.138V352H539.138V351ZM539.138 292.6V291.6H538.138V292.6H539.138ZM548.738 292.6L549.679 292.264L549.442 291.6H548.738V292.6ZM566.578 342.6L565.636 342.936L567.574 342.52L566.578 342.6ZM566.178 337.72L565.179 337.774L565.18 337.789L565.181 337.803L566.178 337.72ZM565.858 331.56L564.858 331.584L564.858 331.597L564.859 331.61L565.858 331.56ZM565.778 292.6V291.6H564.778V292.6H565.778ZM572.738 292.6H573.738V291.6H572.738V292.6ZM572.738 351V352H573.738V351H572.738ZM563.138 351L562.195 351.335L562.431 352H563.138V351ZM545.378 301L546.32 300.665L544.381 301.083L545.378 301ZM545.698 305.88L544.699 305.934L544.699 305.935L545.698 305.88ZM545.938 312.04L544.938 312.064L544.938 312.077L544.939 312.09L545.938 312.04ZM546.098 351V352H547.098V351H546.098ZM540.138 351V292.6H538.138V351H540.138ZM539.138 293.6H548.738V291.6H539.138V293.6ZM547.796 292.936L565.636 342.936L567.519 342.264L549.679 292.264L547.796 292.936ZM567.574 342.52C567.468 341.185 567.334 339.558 567.174 337.637L565.181 337.803C565.341 339.722 565.474 341.348 565.581 342.68L567.574 342.52ZM567.176 337.666C567.069 335.694 566.963 333.642 566.856 331.51L564.859 331.61C564.965 333.745 565.072 335.799 565.179 337.774L567.176 337.666ZM566.857 331.536C566.804 329.356 566.778 327.311 566.778 325.4H564.778C564.778 327.329 564.804 329.391 564.858 331.584L566.857 331.536ZM566.778 325.4V292.6H564.778V325.4H566.778ZM565.778 293.6H572.738V291.6H565.778V293.6ZM571.738 292.6V351H573.738V292.6H571.738ZM572.738 350H563.138V352H572.738V350ZM564.08 350.665L546.32 300.665L544.435 301.335L562.195 351.335L564.08 350.665ZM544.381 301.083C544.487 302.35 544.593 303.966 544.699 305.934L546.696 305.826C546.589 303.848 546.482 302.21 546.374 300.917L544.381 301.083ZM544.699 305.935C544.805 307.844 544.885 309.887 544.938 312.064L546.937 312.016C546.884 309.82 546.803 307.756 546.696 305.825L544.699 305.935ZM544.939 312.09C545.045 314.208 545.098 316.245 545.098 318.2H547.098C547.098 316.209 547.044 314.139 546.936 311.99L544.939 312.09ZM545.098 318.2V351H547.098V318.2H545.098ZM546.098 350H539.138V352H546.098V350ZM594.306 349.88L593.88 350.785L593.887 350.788L594.306 349.88ZM587.986 344.36L587.137 344.888L587.137 344.888L587.986 344.36ZM585.666 335.8V334.8H584.65L584.666 335.816L585.666 335.8ZM592.866 335.8H593.866V334.8H592.866V335.8ZM595.826 342.76L595.172 343.516L595.182 343.525L595.826 342.76ZM612.066 342.84L611.414 342.082L611.403 342.091L612.066 342.84ZM613.026 329.8L612.206 330.372L612.212 330.38L612.218 330.388L613.026 329.8ZM607.666 326.12L607.367 327.074L607.375 327.077L607.383 327.079L607.666 326.12ZM599.746 323.64L600.045 322.686L600.039 322.684L599.746 323.64ZM590.466 317.48L589.663 318.075L589.67 318.085L590.466 317.48ZM589.346 299.16L588.494 298.637L588.491 298.643L589.346 299.16ZM595.346 293.72L595.793 294.614L595.801 294.611L595.808 294.607L595.346 293.72ZM616.706 296.04L616.025 296.772L616.032 296.778L616.706 296.04ZM621.426 307.4V308.4H622.438L622.426 307.389L621.426 307.4ZM614.226 307.4H613.226V308.4H614.226V307.4ZM611.586 300.68L610.89 301.398L610.902 301.409L610.914 301.42L611.586 300.68ZM597.026 300.44L596.379 299.677L596.373 299.682L596.368 299.687L597.026 300.44ZM596.386 312.92L597.195 312.332L597.195 312.332L596.386 312.92ZM601.906 316.68L602.211 315.728L602.203 315.725L601.906 316.68ZM609.906 319.24L609.601 320.192L609.606 320.194L609.906 319.24ZM618.946 325.48L619.755 324.892L619.755 324.892L618.946 325.48ZM619.906 344.2L619.057 343.672L619.057 343.672L619.906 344.2ZM613.586 349.8L613.146 348.902L613.139 348.906L613.586 349.8ZM604.226 350.8C600.495 350.8 597.338 350.178 594.725 348.972L593.887 350.788C596.821 352.142 600.278 352.8 604.226 352.8V350.8ZM594.732 348.975C592.175 347.772 590.22 346.057 588.835 343.832L587.137 344.888C588.739 347.463 590.998 349.428 593.88 350.785L594.732 348.975ZM588.835 343.832C587.453 341.61 586.717 338.94 586.666 335.784L584.666 335.816C584.722 339.273 585.533 342.31 587.137 344.888L588.835 343.832ZM585.666 336.8H592.866V334.8H585.666V336.8ZM591.866 335.8C591.866 338.983 592.95 341.595 595.172 343.516L596.48 342.004C594.755 340.512 593.866 338.483 593.866 335.8H591.866ZM595.182 343.525C597.443 345.429 600.5 346.32 604.226 346.32V344.32C600.806 344.32 598.262 343.504 596.47 341.995L595.182 343.525ZM604.226 346.32C607.745 346.32 610.624 345.453 612.729 343.589L611.403 342.091C609.775 343.534 607.428 344.32 604.226 344.32V346.32ZM612.719 343.598C614.895 341.724 615.946 339.134 615.946 335.96H613.946C613.946 338.653 613.077 340.65 611.414 342.082L612.719 343.598ZM615.946 335.96C615.946 333.419 615.249 331.156 613.835 329.212L612.218 330.388C613.363 331.964 613.946 333.807 613.946 335.96H615.946ZM613.847 329.228C612.472 327.256 610.482 325.909 607.95 325.161L607.383 327.079C609.544 327.718 611.127 328.824 612.206 330.372L613.847 329.228ZM607.965 325.166L600.045 322.686L599.447 324.594L607.367 327.074L607.965 325.166ZM600.039 322.684C596.207 321.509 593.303 319.563 591.263 316.875L589.67 318.085C592.002 321.157 595.285 323.318 599.453 324.596L600.039 322.684ZM591.27 316.885C589.275 314.192 588.266 311.019 588.266 307.32H586.266C586.266 311.408 587.391 315.008 589.663 318.075L591.27 316.885ZM588.266 307.32C588.266 304.324 588.925 301.789 590.202 299.677L588.491 298.643C586.994 301.117 586.266 304.023 586.266 307.32H588.266ZM590.199 299.683C591.537 297.502 593.394 295.814 595.793 294.614L594.899 292.826C592.179 294.186 590.036 296.125 588.494 298.637L590.199 299.683ZM595.808 294.607C598.2 293.361 601.048 292.72 604.386 292.72V290.72C600.791 290.72 597.613 291.412 594.884 292.833L595.808 294.607ZM604.386 292.72C609.31 292.72 613.154 294.099 616.025 296.772L617.388 295.308C614.072 292.221 609.703 290.72 604.386 290.72V292.72ZM616.032 296.778C618.892 299.392 620.376 302.901 620.426 307.411L622.426 307.389C622.37 302.406 620.707 298.341 617.381 295.302L616.032 296.778ZM621.426 306.4H614.226V308.4H621.426V306.4ZM615.226 307.4C615.226 304.303 614.271 301.769 612.259 299.94L610.914 301.42C612.422 302.791 613.226 304.737 613.226 307.4H615.226ZM612.282 299.962C610.335 298.075 607.626 297.2 604.306 297.2V299.2C607.28 299.2 609.425 299.978 610.89 301.398L612.282 299.962ZM604.306 297.2C601.057 297.2 598.373 297.985 596.379 299.677L597.673 301.203C599.199 299.908 601.369 299.2 604.306 299.2V297.2ZM596.368 299.687C594.405 301.405 593.466 303.781 593.466 306.68H595.466C595.466 304.246 596.234 302.462 597.685 301.193L596.368 299.687ZM593.466 306.68C593.466 309.269 594.16 311.56 595.578 313.508L597.195 312.332C596.052 310.76 595.466 308.891 595.466 306.68H593.466ZM595.578 313.508C597.003 315.468 599.037 316.835 601.609 317.635L602.203 315.725C599.976 315.032 598.329 313.892 597.195 312.332L595.578 313.508ZM601.601 317.632L609.601 320.192L610.211 318.288L602.211 315.728L601.601 317.632ZM609.606 320.194C613.322 321.365 616.146 323.329 618.138 326.068L619.755 324.892C617.48 321.764 614.277 319.569 610.207 318.286L609.606 320.194ZM618.138 326.068C620.135 328.815 621.146 332.045 621.146 335.8H623.146C623.146 331.662 622.024 328.011 619.755 324.892L618.138 326.068ZM621.146 335.8C621.146 338.839 620.439 341.45 619.057 343.672L620.755 344.728C622.36 342.15 623.146 339.161 623.146 335.8H621.146ZM619.057 343.672C617.67 345.901 615.71 347.645 613.146 348.902L614.026 350.698C616.902 349.288 619.156 347.299 620.755 344.728L619.057 343.672ZM613.139 348.906C610.636 350.157 607.675 350.8 604.226 350.8V352.8C607.924 352.8 611.203 352.11 614.033 350.694L613.139 348.906ZM631.875 351L630.907 350.748L630.581 352H631.875V351ZM647.075 292.6V291.6H646.302L646.107 292.348L647.075 292.6ZM656.755 292.6L657.723 292.349L657.529 291.6H656.755V292.6ZM671.875 351V352H673.167L672.843 350.749L671.875 351ZM664.595 351L663.624 351.24L663.812 352H664.595V351ZM660.755 335.48L661.726 335.24L661.538 334.48H660.755V335.48ZM643.075 335.48V334.48H642.292L642.104 335.24L643.075 335.48ZM639.235 351V352H640.018L640.206 351.24L639.235 351ZM644.515 329.4L643.544 329.159L643.237 330.4H644.515V329.4ZM659.235 329.4V330.4H660.514L660.205 329.158L659.235 329.4ZM654.755 311.4L655.725 311.158L655.725 311.157L654.755 311.4ZM652.755 302.84L653.734 302.635L653.734 302.635L652.755 302.84ZM651.875 298.36L652.863 298.208H650.887L651.875 298.36ZM650.995 302.84L650.016 302.635L650.016 302.635L650.995 302.84ZM648.995 311.32L648.026 311.074L648.024 311.079L648.995 311.32ZM632.843 351.252L648.043 292.852L646.107 292.348L630.907 350.748L632.843 351.252ZM647.075 293.6H656.755V291.6H647.075V293.6ZM655.787 292.851L670.907 351.251L672.843 350.749L657.723 292.349L655.787 292.851ZM671.875 350H664.595V352H671.875V350ZM665.566 350.76L661.726 335.24L659.784 335.72L663.624 351.24L665.566 350.76ZM660.755 334.48H643.075V336.48H660.755V334.48ZM642.104 335.24L638.264 350.76L640.206 351.24L644.046 335.72L642.104 335.24ZM639.235 350H631.875V352H639.235V350ZM644.515 330.4H659.235V328.4H644.515V330.4ZM660.205 329.158L655.725 311.158L653.785 311.642L658.265 329.642L660.205 329.158ZM655.725 311.157C654.874 307.751 654.21 304.911 653.734 302.635L651.776 303.045C652.26 305.355 652.93 308.222 653.785 311.643L655.725 311.157ZM653.734 302.635C653.252 300.335 652.965 298.87 652.863 298.208L650.887 298.512C650.998 299.237 651.298 300.758 651.776 303.045L653.734 302.635ZM650.887 298.208C650.785 298.87 650.498 300.335 650.016 302.635L651.974 303.045C652.452 300.758 652.752 299.237 652.863 298.512L650.887 298.208ZM650.016 302.635C649.54 304.91 648.877 307.722 648.026 311.074L649.964 311.566C650.82 308.198 651.49 305.357 651.974 303.045L650.016 302.635ZM648.024 311.079L643.544 329.159L645.486 329.641L649.966 311.561L648.024 311.079ZM685.044 351H684.044V352H685.044V351ZM685.044 292.6V291.6H684.044V292.6H685.044ZM692.244 292.6H693.244V291.6H692.244V292.6ZM692.244 344.44H691.244V345.44H692.244V344.44ZM718.644 344.44H719.644V343.44H718.644V344.44ZM718.644 351V352H719.644V351H718.644ZM686.044 351V292.6H684.044V351H686.044ZM685.044 293.6H692.244V291.6H685.044V293.6ZM691.244 292.6V344.44H693.244V292.6H691.244ZM692.244 345.44H718.644V343.44H692.244V345.44ZM717.644 344.44V351H719.644V344.44H717.644ZM718.644 350H685.044V352H718.644V350ZM742.853 351L741.884 351.249L742.077 352H742.853V351ZM727.813 292.6V291.6H726.522L726.844 292.849L727.813 292.6ZM735.253 292.6L736.223 292.357L736.033 291.6H735.253V292.6ZM745.173 332.28L746.143 332.037L746.143 332.037L745.173 332.28ZM746.933 340.04L745.952 340.236L745.953 340.24L746.933 340.04ZM747.973 345.4L746.987 345.571H748.958L747.973 345.4ZM748.933 340.04L747.952 339.844L747.95 339.852L747.949 339.861L748.933 340.04ZM750.693 332.28L751.663 332.523L751.663 332.521L750.693 332.28ZM760.533 292.6V291.6H759.75L759.562 292.359L760.533 292.6ZM767.813 292.6L768.781 292.851L769.104 291.6H767.813V292.6ZM752.693 351V352H753.467L753.661 351.251L752.693 351ZM743.821 350.751L728.781 292.351L726.844 292.849L741.884 351.249L743.821 350.751ZM727.813 293.6H735.253V291.6H727.813V293.6ZM734.282 292.843L744.202 332.523L746.143 332.037L736.223 292.357L734.282 292.843ZM744.202 332.523C744.892 335.283 745.475 337.854 745.952 340.236L747.913 339.844C747.43 337.426 746.839 334.824 746.143 332.037L744.202 332.523ZM745.953 340.24C746.432 342.584 746.777 344.36 746.987 345.571L748.958 345.229C748.742 343.987 748.393 342.189 747.912 339.84L745.953 340.24ZM748.958 345.571C749.17 344.349 749.49 342.565 749.916 340.219L747.949 339.861C747.522 342.208 747.201 343.998 746.987 345.229L748.958 345.571ZM749.913 340.236C750.39 337.854 750.973 335.283 751.663 332.523L749.722 332.037C749.026 334.824 748.435 337.426 747.952 339.844L749.913 340.236ZM751.663 332.521L761.503 292.841L759.562 292.359L749.722 332.039L751.663 332.521ZM760.533 293.6H767.813V291.6H760.533V293.6ZM766.844 292.349L751.724 350.749L753.661 351.251L768.781 292.851L766.844 292.349ZM752.693 350H742.853V352H752.693V350ZM779.781 351H778.781V352H779.781V351ZM779.781 292.6V291.6H778.781V292.6H779.781ZM813.381 292.6H814.381V291.6H813.381V292.6ZM813.381 299.16V300.16H814.381V299.16H813.381ZM786.901 299.16V298.16H785.901V299.16H786.901ZM786.901 317.24H785.901V318.24H786.901V317.24ZM810.581 317.24H811.581V316.24H810.581V317.24ZM810.581 323.72V324.72H811.581V323.72H810.581ZM786.901 323.72V322.72H785.901V323.72H786.901ZM786.901 344.44H785.901V345.44H786.901V344.44ZM813.381 344.44H814.381V343.44H813.381V344.44ZM813.381 351V352H814.381V351H813.381ZM780.781 351V292.6H778.781V351H780.781ZM779.781 293.6H813.381V291.6H779.781V293.6ZM812.381 292.6V299.16H814.381V292.6H812.381ZM813.381 298.16H786.901V300.16H813.381V298.16ZM785.901 299.16V317.24H787.901V299.16H785.901ZM786.901 318.24H810.581V316.24H786.901V318.24ZM809.581 317.24V323.72H811.581V317.24H809.581ZM810.581 322.72H786.901V324.72H810.581V322.72ZM785.901 323.72V344.44H787.901V323.72H785.901ZM786.901 345.44H813.381V343.44H786.901V345.44ZM812.381 344.44V351H814.381V344.44H812.381ZM813.381 350H779.781V352H813.381V350ZM875.719 351H874.719V352H875.719V351ZM875.719 292.6V291.6H874.719V292.6H875.719ZM909.319 292.6H910.319V291.6H909.319V292.6ZM909.319 299.16V300.16H910.319V299.16H909.319ZM882.839 299.16V298.16H881.839V299.16H882.839ZM882.839 317.24H881.839V318.24H882.839V317.24ZM906.519 317.24H907.519V316.24H906.519V317.24ZM906.519 323.72V324.72H907.519V323.72H906.519ZM882.839 323.72V322.72H881.839V323.72H882.839ZM882.839 344.44H881.839V345.44H882.839V344.44ZM909.319 344.44H910.319V343.44H909.319V344.44ZM909.319 351V352H910.319V351H909.319ZM876.719 351V292.6H874.719V351H876.719ZM875.719 293.6H909.319V291.6H875.719V293.6ZM908.319 292.6V299.16H910.319V292.6H908.319ZM909.319 298.16H882.839V300.16H909.319V298.16ZM881.839 299.16V317.24H883.839V299.16H881.839ZM882.839 318.24H906.519V316.24H882.839V318.24ZM905.519 317.24V323.72H907.519V317.24H905.519ZM906.519 322.72H882.839V324.72H906.519V322.72ZM881.839 323.72V344.44H883.839V323.72H881.839ZM882.839 345.44H909.319V343.44H882.839V345.44ZM908.319 344.44V351H910.319V344.44H908.319ZM909.319 350H875.719V352H909.319V350ZM934.808 350.04L934.1 350.747L934.108 350.755L934.116 350.763L934.808 350.04ZM934.808 340.36L934.1 339.653L934.093 339.661L934.085 339.669L934.808 340.36ZM944.488 340.36L943.765 341.051L943.773 341.059L943.78 341.067L944.488 340.36ZM944.488 350.04L943.796 349.317L943.788 349.325L943.78 349.333L944.488 350.04ZM939.688 350.8C937.865 350.8 936.504 350.279 935.499 349.317L934.116 350.763C935.564 352.148 937.456 352.8 939.688 352.8V350.8ZM935.515 349.333C934.564 348.382 934.048 347.082 934.048 345.32H932.048C932.048 347.505 932.705 349.351 934.1 350.747L935.515 349.333ZM934.048 345.32C934.048 343.436 934.573 342.052 935.53 341.051L934.085 339.669C932.695 341.122 932.048 343.044 932.048 345.32H934.048ZM935.515 341.067C936.522 340.059 937.878 339.52 939.688 339.52V337.52C937.444 337.52 935.546 338.207 934.1 339.653L935.515 341.067ZM939.688 339.52C941.498 339.52 942.816 340.06 943.765 341.051L945.21 339.669C943.812 338.207 941.93 337.52 939.688 337.52V339.52ZM943.78 341.067C944.783 342.07 945.328 343.449 945.328 345.32H947.328C947.328 343.031 946.645 341.104 945.195 339.653L943.78 341.067ZM945.328 345.32C945.328 347.069 944.793 348.364 943.796 349.317L945.179 350.763C946.635 349.37 947.328 347.518 947.328 345.32H945.328ZM943.78 349.333C942.835 350.279 941.511 350.8 939.688 350.8V352.8C941.917 352.8 943.794 352.148 945.195 350.747L943.78 349.333Z" fill="black"/>
</svg>
